<?xml version="1.0" standalone="no"?>
<!DOCTYPE svg PUBLIC "-//W3C//DTD SVG 1.1//EN" "http://www.w3.org/Graphics/SVG/1.1/DTD/svg11.dtd" >
<svg xmlns="http://www.w3.org/2000/svg" xmlns:xlink="http://www.w3.org/1999/xlink" version="1.1">
<metadata></metadata>
<defs>
<font id="sintonyregular" horiz-adv-x="1298" >
<font-face units-per-em="2048" ascent="1638" descent="-410" />
<missing-glyph horiz-adv-x="593" />
<glyph unicode="&#xfb01;" horiz-adv-x="1310" d="M115 1051v120h135v91q0 326 323 325q121 0 218 -35l-46 -133q-69 29 -159 29q-160 0 -160 -186v-91h270v-120h-270v-1051h-176v1051h-135zM901.5 1481.5q-0.5 113.5 104.5 113.5q109 0 109 -113.5t-109 -113.5q-104 0 -104.5 113.5zM918 0v1171h176v-1171h-176z" />
<glyph unicode="&#xfb02;" horiz-adv-x="1310" d="M115 1051v120h135v91q0 326 323 325q121 0 218 -35l-46 -133q-69 29 -159 29q-160 0 -160 -186v-91h270v-120h-270v-1051h-176v1051h-135zM918 0v1552l176 25v-1577h-176z" />
<glyph horiz-adv-x="0" />
<glyph unicode="&#xd;" horiz-adv-x="681" />
<glyph unicode=" "  horiz-adv-x="593" />
<glyph unicode="&#x09;" horiz-adv-x="593" />
<glyph unicode="&#xa0;" horiz-adv-x="593" />
<glyph unicode="!" horiz-adv-x="638" d="M209 103.5q0 31.5 3 50t13 39.5q16 43 90 43t94.5 -34t20.5 -82t-5 -71.5t-31.5 -44t-75 -20.5t-74 20.5t-30.5 44t-5 55zM219 1159v336h197v-336l-45 -768h-107z" />
<glyph unicode="&#x22;" horiz-adv-x="827" d="M147 1384v111h189v-111l-41 -391h-107zM492 1384v111h188v-111l-41 -391h-107z" />
<glyph unicode="#" horiz-adv-x="1638" d="M115 356l24 144h230l90 493h-232l25 144h231l95 512h178l-94 -512h456l94 512h179l-95 -512h228l-25 -144h-227l-90 -493h229l-25 -144h-231l-92 -512h-178l92 512h-457l-92 -512h-178l92 512h-227zM547 500h457l90 493h-457z" />
<glyph unicode="$" horiz-adv-x="1290" d="M162 412l155 10q0 -147 76 -219t255 -72t249 68.5t70 210.5q0 201 -224 241l-198 31q-191 31 -276 127t-85 283.5t91.5 294t310.5 118.5v221h125v-221q217 -14 312 -118.5t95 -301.5l-155 -10q0 147 -71 217t-238 70t-230.5 -69.5t-63.5 -211.5q0 -215 197 -241l199 -27 q203 -29 294 -128t91 -275q0 -399 -430 -422v-219h-125v219q-229 12 -326.5 119.5t-97.5 304.5z" />
<glyph unicode="%" horiz-adv-x="2007" d="M102 1082q0 132 24 221.5t95.5 149.5t178 60t169 -32.5t95.5 -94.5q59 -111 59 -303q0 -317 -154 -399q-63 -33 -169.5 -33t-178 60.5t-95.5 149.5t-24 221zM260 1082.5q0 -158.5 33 -233.5t121 -75t119.5 75t31.5 233.5t-31.5 233.5t-119.5 75t-121 -75t-33 -233.5z M698 -135l439 1640h125l-441 -1640h-123zM1231 415q0 132 23.5 221t95 149.5t178 60.5t169 -33t95.5 -94q59 -111 59 -303q1 -318 -155 -400q-61 -33 -168 -32.5t-178.5 60.5t-95 149.5t-23.5 221.5zM1389 414.5q0 -158.5 32.5 -233.5t120.5 -75t120 75t32 233.5t-32 233.5 t-120 75t-120.5 -75t-32.5 -233.5z" />
<glyph unicode="&#x26;" d="M104 391q0 147 78 241.5t209 135.5q-111 45 -178.5 140.5t-67.5 211.5q0 403 435 404q348 0 403 -291l-152 -45q-28 190 -245 190q-145 0 -204.5 -69.5t-59.5 -196.5t67.5 -209t183.5 -82h31v-127q-174 0 -248.5 -73.5t-74.5 -221t74.5 -215t242.5 -67.5t239.5 69.5 t71.5 204.5v303h-118v127h512v-127h-238v-209q0 -135 -15.5 -220t-62.5 -159q-92 -137 -393 -137q-489 0 -490 422z" />
<glyph unicode="'" horiz-adv-x="483" d="M147 1384v111h189v-111l-41 -391h-107z" />
<glyph unicode="(" horiz-adv-x="614" d="M118.5 632q0.5 169 6.5 259t22.5 189.5t51 171t86.5 132.5q102 121 317 121v-143q-76 0 -131 -39t-86 -98.5t-49 -155.5q-27 -150 -27 -326t5 -262t22.5 -181t48.5 -154.5t86 -98.5t131 -39v-143q-215 0 -317 123q-109 127 -138 303q-29 172 -28.5 341z" />
<glyph unicode=")" horiz-adv-x="614" d="M12 8q76 0 131.5 39t86 98.5t49.5 153.5q27 152 26.5 328t-5.5 262t-22.5 181t-48 154.5t-86 98.5t-131.5 39v143q215 0 318 -121q109 -129 137 -303q29 -174 29 -343t-6.5 -259t-22.5 -189.5t-51 -171t-86 -130.5q-102 -123 -318 -123v143z" />
<glyph unicode="*" horiz-adv-x="1132" d="M53 1159l58 170l161 -51l213 -135l-18 -53l-252 16zM193 729l100 141l194 158l45 -35l-90 -233l-100 -139zM473 1425v170h189v-170l-66 -243h-57zM598 993l47 33l195 -156l100 -141l-149 -108l-101 139zM649 1143l209 135l164 51l57 -170l-161 -53l-252 -19z" />
<glyph unicode="+" horiz-adv-x="1187" d="M188 582v139h336v336h140v-336h335v-139h-335v-336h-140v336h-336z" />
<glyph unicode="," horiz-adv-x="462" d="M68 -193q29 27 43 43q41 47 41 119q0 21 -14.5 68t-14.5 81t5 55.5t29.5 42t73 20.5t74 -20.5t30.5 -42t5 -76t-27.5 -121t-72.5 -115.5q-68 -76 -119 -115z" />
<glyph unicode="-" horiz-adv-x="999" d="M139 582v139h721v-139h-721z" />
<glyph unicode="." horiz-adv-x="466" d="M123 103.5q0 31.5 3 50t13 39.5q16 43 90 43t94.5 -34t20.5 -82t-5 -71.5t-31.5 -44t-75 -20.5t-74 20.5t-30.5 44t-5 55z" />
<glyph unicode="/" horiz-adv-x="655" d="M-4 -217l485 1804h178l-485 -1804h-178z" />
<glyph unicode="0" d="M123 747.5q0 135.5 13.5 244t48 211t92 171t151.5 109.5t219 41t219.5 -41t152.5 -109.5t93 -171t48.5 -211t13.5 -244t-13.5 -244t-48.5 -211t-93 -171t-152.5 -109.5t-219.5 -41t-218 41t-151.5 109.5t-93 171t-48 211t-13.5 244zM299 748q0 -473 176 -588 q70 -45 172 -45q199 0 275.5 162.5t76.5 470.5q0 471 -180 585q-70 45 -172 45t-171.5 -45t-106.5 -133q-70 -160 -70 -452z" />
<glyph unicode="1" d="M291 0v145h309v1127h-301v110q223 25 348 113h133v-1350h312v-145h-801z" />
<glyph unicode="2" d="M164 0v137l577 625q102 109 150.5 188.5t48.5 186t-72.5 174t-218.5 67.5q-283 0 -299 -262l-155 25q16 182 130.5 282.5t335 100.5t338 -107.5t117.5 -294.5q0 -129 -68.5 -243.5t-191.5 -247.5l-453 -486h730v-145h-969z" />
<glyph unicode="3" d="M145 338l156 18q31 -240 334 -239q156 0 242 67.5t86 198.5t-75 210t-233 79h-186v135h188q137 0 211 79t74 210t-78 206.5t-227.5 75.5t-225 -69.5t-85.5 -194.5l-154 21q14 184 131 286.5t341 102.5t349 -116t125 -318q0 -117 -62.5 -207t-166.5 -138 q115 -41 181.5 -135t66.5 -235q0 -190 -135.5 -297t-372.5 -107q-444 0 -484 367z" />
<glyph unicode="4" d="M66 334v143l659 1018h258v-1016h182v-145h-182v-334h-176v334h-741zM264 479h543v848z" />
<glyph unicode="5" d="M201 391l155 15q17 -291 314 -291q164 0 244.5 89t80.5 238.5t-116.5 229.5t-403.5 80h-246l47 743h811v-145h-661l-31 -451h97q348 0 515 -114.5t167 -333t-130.5 -349.5t-362.5 -131t-350 108.5t-130 311.5z" />
<glyph unicode="6" d="M166 694q0 614 264 770q102 59 246 60q455 0 479 -410l-154 -16q-14 280 -321 280q-190 0 -266 -166q-63 -137 -72 -405q180 53 346 53q502 0 502 -411q-2 -225 -127 -351.5t-369 -126.5q-281 0 -404.5 187.5t-123.5 535.5zM342 672q8 -295 88 -426t256 -131 q328 0 328 334q0 122 -80 198t-252 76t-340 -51z" />
<glyph unicode="7" d="M166 1350v145h969v-135l-586 -1360h-193l586 1350h-776z" />
<glyph unicode="8" d="M143 381q0 262 248 364q-227 96 -227 349q0 188 125 309t361.5 121t361.5 -122t125 -308q0 -233 -230 -336q250 -94 250 -377q0 -182 -136 -296t-369.5 -114t-371 114t-137.5 296zM319 386q0 -122 85 -195.5t244 -73.5t247 74.5t88 193.5t-55.5 190.5t-184.5 92.5 l-161 26q-129 -20 -196 -103t-67 -205zM338 1097q0 -120 54 -185.5t188 -86.5l125 -20q127 23 192.5 98.5t65.5 194.5t-77 199.5t-234.5 80.5t-235.5 -80.5t-78 -200.5z" />
<glyph unicode="9" d="M119 1064q0 191 137 325.5t395 134.5t370 -191.5t112 -568.5q0 -358 -105 -563q-115 -229 -418 -230q-223 0 -341.5 104.5t-131.5 299.5l154 18q12 -279 332 -278q162 0 242.5 128t90.5 423q-170 -49 -324.5 -49.5t-255 35.5t-155.5 100q-102 121 -102 312zM295 1066 q0 -132 81 -220t251 -88t331 41q-4 311 -76.5 445t-241.5 134t-257 -90t-88 -222z" />
<glyph unicode=":" horiz-adv-x="466" d="M123 103.5q0 31.5 3 50t13 39.5q16 43 90 43t94.5 -34t20.5 -82t-5 -71.5t-31.5 -44t-75 -20.5t-74 20.5t-30.5 44t-5 55zM123 953.5q0 31.5 3 50t13 40.5q16 41 90 41t94.5 -33.5t20.5 -81.5t-5 -72t-31.5 -44t-75 -20t-74 20t-30.5 44t-5 55.5z" />
<glyph unicode=";" horiz-adv-x="462" d="M68 -193q29 27 43 43q41 47 41 119q0 21 -14.5 68t-14.5 81t5 55.5t29.5 42t73 20.5t74 -20.5t30.5 -42t5 -76t-27.5 -121t-72.5 -115.5q-68 -76 -119 -115zM121 953.5q0 31.5 3 50t11 40.5q18 41 92 41t94.5 -33.5t20.5 -81.5t-5 -72t-31.5 -44t-75 -20t-74 20t-30.5 44 t-5 55.5z" />
<glyph unicode="&#x3c;" horiz-adv-x="1187" d="M182 561v176l824 346v-153l-689 -281l689 -280v-154z" />
<glyph unicode="=" horiz-adv-x="1187" d="M188 373v139h811v-139h-811zM188 791v139h811v-139h-811z" />
<glyph unicode="&#x3e;" horiz-adv-x="1187" d="M182 215v154l688 280l-688 281v153l824 -346v-176z" />
<glyph unicode="?" horiz-adv-x="983" d="M74 1210q24 146 128.5 230t300 84t311.5 -126t116 -302q0 -315 -402 -455l-22 -250h-113l-16 311q199 66 290 159t91 221t-70 216t-205 88q-219 0 -258 -196zM340 103.5q0 31.5 3 50t13 39.5q16 43 89 43t94.5 -35t21.5 -82t-5 -70.5t-31.5 -44t-75 -20.5t-74 20.5 t-30.5 44t-5 55z" />
<glyph unicode="@" horiz-adv-x="2097" d="M176 672q0 408 212 637t654.5 229t660.5 -218t218 -572q0 -492 -467 -492h-164l-47 125q-154 -145 -328 -145q-313 0 -313 460.5t379 460.5q150 0 297 -74l51 74h66v-778h55q172 0 240.5 92t68.5 255t-36.5 277.5t-116.5 206.5q-168 195 -550 195t-545 -190.5 t-163 -542.5q0 -141 16.5 -245.5t61.5 -201t123 -155.5q168 -131 504 -131h342v-134h-342q-348 0 -537 111q-195 113 -268 301q-72 184 -72 455zM762 696q0 -336 207 -336q141 0 266 132v489q-111 51 -223 51q-250 0 -250 -336z" />
<glyph unicode="A" horiz-adv-x="1286" d="M35 0l487 1495h240l489 -1495h-178l-145 451h-570l-145 -451h-178zM403 594h478l-238 741z" />
<glyph unicode="B" horiz-adv-x="1255" d="M217 0v1495h410q456 0 456 -381q0 -260 -215 -340q293 -63 293 -377q0 -397 -456 -397h-488zM397 143h305q143 0 211 74t68 199t-67.5 200.5t-211.5 75.5h-305v-549zM397 838h228q143 0 210.5 68.5t67.5 187t-67.5 188.5t-210.5 70h-228v-514z" />
<glyph unicode="C" horiz-adv-x="1306" d="M152 748.5q0 193.5 25.5 328.5t88.5 240q123 207 461 207q223 0 331.5 -101.5t133.5 -289.5l-145 -27q-44 270 -320 270q-190 0 -285 -106q-84 -92 -102 -303q-8 -88 -8 -217t8 -220.5t33.5 -173.5t68.5 -131q94 -106 285 -106q315 0 326 336l147 -9 q-14 -227 -123.5 -351t-349.5 -124q-338 0 -461 209q-63 104 -88.5 239.5t-25.5 329z" />
<glyph unicode="D" horiz-adv-x="1429" d="M217 0v1495h455q352 0 477 -221q61 -106 84.5 -231t23.5 -278t-13 -257.5t-52 -203.5t-102 -163q-145 -141 -418 -141h-455zM397 143h267q201 0 299 115q115 138 115 486q0 353 -115 493q-98 115 -299 115h-267v-1209z" />
<glyph unicode="E" horiz-adv-x="1146" d="M217 0v1495h795v-143h-615v-521h572v-143h-572v-545h656v-143h-836z" />
<glyph unicode="F" horiz-adv-x="1060" d="M217 0v1495h754v-143h-574v-521h527v-143h-527v-688h-180z" />
<glyph unicode="G" horiz-adv-x="1419" d="M152 769q0 173 25.5 308t88.5 240q123 207 461 207q223 0 331.5 -101.5t133.5 -289.5l-145 -27q-43 270 -320 270q-190 0 -285 -106q-84 -96 -102 -303q-8 -90 -8 -220.5t8 -222.5t32.5 -173t65.5 -130q92 -102 263 -102t260.5 83t101.5 224v205h-232v121h392v-752h-99 l-30 178q-127 -207 -387 -207q-264 0 -396 135q-115 117 -147 377q-12 113 -12 286z" />
<glyph unicode="H" horiz-adv-x="1486" d="M217 0v1495h180v-676h693v676h180v-1495h-180v676h-693v-676h-180z" />
<glyph unicode="I" horiz-adv-x="614" d="M217 0v1495h180v-1495h-180z" />
<glyph unicode="J" horiz-adv-x="956" d="M33 387h155q0 -152 43 -210t161 -58t158 54t40 202v1120h180v-1120q0 -96 -11 -158.5t-48 -124.5q-72 -121 -324 -121q-211 0 -285 95q-49 68 -59 129q-10 78 -10 192z" />
<glyph unicode="K" horiz-adv-x="1224" d="M217 0v1495h180v-666h162l420 666h188l-473 -741l502 -754h-195l-454 686h-150v-686h-180z" />
<glyph unicode="L" horiz-adv-x="987" d="M217 0v1495h180v-1352h557v-143h-737z" />
<glyph unicode="M" horiz-adv-x="1796" d="M197 0l41 1495h243l404 -1145l430 1145h246l38 -1495h-176l-30 1260l-428 -1133h-164l-398 1120l-30 -1247h-176z" />
<glyph unicode="N" horiz-adv-x="1523" d="M217 0v1495h197l712 -1194v1194h181v-1495h-197l-713 1192v-1192h-180z" />
<glyph unicode="O" horiz-adv-x="1476" d="M152 728q0 157 14 266.5t54 212t104 169.5q141 147 413 148q344 0 473 -230q63 -111 89 -241.5t26 -306t-25.5 -306.5t-89 -241.5t-182.5 -169t-292 -58.5t-290.5 57.5t-180 169t-88 242.5t-25.5 288zM332 747q0 -358 119 -507q96 -121 299 -121q106 0 189 48t126 137 t61.5 196.5t18.5 247t-18.5 247t-61.5 197.5q-90 184 -328 184q-190 0 -286 -121q-119 -150 -119 -508z" />
<glyph unicode="P" horiz-adv-x="1206" d="M217 0v1495h440q463 0 463 -470t-463 -470h-260v-555h-180zM397 698h250q293 0 293 327t-293 327h-250v-654z" />
<glyph unicode="Q" horiz-adv-x="1456" d="M152 748q0 477 172 641q137 135 403 135q340 0 465 -209q61 -106 87 -240.5t26 -326.5q0 -324 -80 -508.5t-285 -241.5l326 -145l-74 -138l-522 258q-297 16 -407.5 206t-110.5 569zM332 747.5q0 -317.5 84 -473t310 -155.5t312 156.5t86 472t-86 472t-312 156.5 t-310 -155.5t-84 -473z" />
<glyph unicode="R" horiz-adv-x="1310" d="M217 0v1495h453q133 0 228 -39t142 -106q88 -127 88 -295q0 -322 -258 -410q55 -41 99 -135l221 -510h-193l-206 485q-33 74 -82.5 100.5t-137.5 30.5h-174v-616h-180zM397 760h265q150 0 218 85t68 211t-68.5 211t-217.5 85h-265v-592z" />
<glyph unicode="S" horiz-adv-x="1224" d="M115 360l147 27q39 -270 334 -270q334 0 334 264q0 115 -61.5 170t-204.5 94l-136 39q-211 57 -297 146.5t-86 272.5t123 302t357.5 119t341 -100.5t135.5 -288.5l-148 -27q-39 270 -311 270q-317 0 -317 -264q0 -115 56 -171t191 -93l142 -39q217 -61 306 -149.5 t89 -271.5t-128 -301t-370.5 -118t-355.5 100.5t-141 288.5z" />
<glyph unicode="T" horiz-adv-x="1011" d="M14 1352v143h983v-143h-401v-1352h-180v1352h-402z" />
<glyph unicode="U" horiz-adv-x="1427" d="M186 494v1001h181v-995q0 -238 112 -316q55 -37 108.5 -49t126 -12t126 12t108.5 49q113 76 113 316v995h180v-1001q0 -137 -32.5 -235.5t-81 -153t-124 -86t-140 -40t-150.5 -8.5t-150.5 8.5t-139.5 40t-123 86t-81 152.5t-33 236z" />
<glyph unicode="V" horiz-adv-x="1253" d="M51 1495h185l391 -1325l393 1325h182l-454 -1495h-240z" />
<glyph unicode="W" horiz-adv-x="1783" d="M57 1495h185l276 -1327l285 1327h178l283 -1327l278 1327h184l-325 -1495h-262l-248 1139l-246 -1139h-262z" />
<glyph unicode="X" horiz-adv-x="1288" d="M55 0l484 782l-457 713h205l370 -580l353 580h196l-452 -729l491 -766h-205l-405 631l-381 -631h-199z" />
<glyph unicode="Y" horiz-adv-x="1126" d="M12 1495h185l366 -799l367 799h184l-461 -975v-520h-180v520z" />
<glyph unicode="Z" horiz-adv-x="1124" d="M57 0v115l770 1237h-731l2 143h949v-115l-771 -1237h791v-143h-1010z" />
<glyph unicode="[" horiz-adv-x="604" d="M160 -135v1640h432v-129h-250v-1382h250v-129h-432z" />
<glyph unicode="\" horiz-adv-x="655" d="M-4 1587h178l485 -1804h-178z" />
<glyph unicode="]" horiz-adv-x="604" d="M12 -6h250v1382h-250v129h432v-1640h-432v129z" />
<glyph unicode="^" horiz-adv-x="1187" d="M201 647l305 619h176l305 -619h-153l-240 502l-240 -502h-153z" />
<glyph unicode="_" horiz-adv-x="1179" d="M139 0h901v-139h-901v139z" />
<glyph unicode="`" horiz-adv-x="634" d="M86 1563l111 131l344 -320l-80 -94z" />
<glyph unicode="a" horiz-adv-x="1200" d="M109 274.5q0 139.5 87 225.5t326 125l305 49v117q0 152 -64.5 209t-176.5 57q-225 0 -269 -219l-143 43q33 152 137.5 235.5t284 83.5t285.5 -78q123 -88 123 -331v-791h-117l-45 182q-197 -211 -432 -211q-156 0 -228.5 82t-72.5 221.5zM283 281.5q0 -80.5 43 -128 t133 -47.5q184 0 368 199v246l-288 -49q-145 -27 -200.5 -83.5t-55.5 -137z" />
<glyph unicode="b" horiz-adv-x="1284" d="M217 0v1552l176 21v-469q176 96 338 96q442 0 442 -614.5t-442 -614.5q-193 0 -371 125l-38 -96h-105zM393 211q141 -96 289 -96q315 0 315 471q0 129 -25.5 229t-95 171t-178.5 71q-158 0 -305 -88v-758z" />
<glyph unicode="c" horiz-adv-x="1126" d="M111 546.5q0 170.5 20.5 272t71.5 193.5q106 188 391 188q227 0 327.5 -93t112.5 -269l-141 -21q-6 119 -72.5 179.5t-220.5 60.5q-188 0 -256 -146q-57 -120 -57 -325q0 -100 12 -178t45 -148q68 -145 256 -145q154 0 220.5 60.5t72.5 178.5l143 -6 q-14 -182 -114.5 -279.5t-327.5 -97.5q-322 0 -426 262q-57 143 -57 313.5z" />
<glyph unicode="d" horiz-adv-x="1284" d="M567 1200q158 0 324 -80v432l176 21v-1573h-117l-51 178q-187 -207 -412 -207q-377 0 -377 613q0 616 457 616zM287 586q0 -471 258 -471q184 0 346 196v670q-147 80 -289 80q-172 0 -243.5 -125t-71.5 -350z" />
<glyph unicode="e" horiz-adv-x="1183" d="M111 586q0 614 489 614q483 0 483 -590v-43h-798q2 -242 73.5 -347t249.5 -105q291 0 312 235l145 -8q-39 -371 -457 -371q-268 0 -382.5 152.5t-114.5 462.5zM289 698h618q-10 172 -77.5 265.5t-227.5 93.5t-229.5 -95.5t-83.5 -263.5z" />
<glyph unicode="f" horiz-adv-x="692" d="M115 1051v120h135v91q0 325 321 325h2q121 0 218 -35l-46 -133q-69 29 -159 29q-160 0 -160 -186v-91h270v-120h-270v-1051h-176v1051h-135z" />
<glyph unicode="g" horiz-adv-x="1171" d="M70 -214q0 142 123 230q-117 45 -117 177q0 98 86 184l98 98q-108 105 -108 305q0 168 84 285q45 61 134 98t206.5 37t199.5 -29h309v-116h-145q78 -106 78 -271q0 -164 -84 -280q-45 -62 -134 -98.5t-212 -36.5t-217 37l-92 -91q-47 -45 -48 -102q0 -76 95 -76h458 q150 0 235 -78.5t85 -194.5t-45 -184.5t-129 -101.5q-145 -55 -376.5 -55t-357.5 60.5t-126 202.5zM320 -303q83 -33 260.5 -33t260.5 36t83 150q0 80 -58.5 115t-136.5 35h-410q-84 -68 -84 -168q0 -102 85 -135zM322 784.5q0 -288.5 263 -288.5t263 288.5t-263 288.5 t-263 -288.5z" />
<glyph unicode="h" horiz-adv-x="1339" d="M217 0v1552l176 21v-510q195 137 390.5 137t277.5 -91t82 -278v-831h-176v827q0 123 -47.5 176.5t-157.5 53.5q-190 0 -369 -137v-920h-176z" />
<glyph unicode="i" horiz-adv-x="610" d="M201 1481.5q0 113.5 104 113.5q109 0 109 -113.5t-109 -113.5q-104 0 -104 113.5zM217 0v1171h176v-1171h-176z" />
<glyph unicode="j" horiz-adv-x="610" d="M-145 -426l45 133q71 -31 157 -31q160 0 160 187v1308h176v-1308q0 -326 -323 -326q-121 0 -215 37zM201 1481.5q0 113.5 104 113.5q109 0 109 -113.5t-109 -113.5q-104 0 -104 113.5z" />
<glyph unicode="k" horiz-adv-x="1112" d="M217 0v1552l176 21v-875h162l330 473h194l-391 -553l428 -618h-194l-392 567h-137v-567h-176z" />
<glyph unicode="l" horiz-adv-x="610" d="M217 0v1552l176 25v-1577h-176z" />
<glyph unicode="m" horiz-adv-x="2019" d="M217 0v1171h109l45 -116q172 145 377 145q238 0 319 -162q76 68 181.5 115t217.5 47q356 0 357 -366v-834h-176v823q0 115 -49.5 174.5t-159.5 59.5q-182 0 -336 -139q6 -41 6 -84v-834h-176v823q0 115 -49 174.5t-162 59.5q-178 0 -328 -129v-928h-176z" />
<glyph unicode="n" horiz-adv-x="1339" d="M217 0v1171h105l49 -122q206 152 406 152l1 -1q200 0 282.5 -91t82.5 -278v-831h-176v827q0 123 -47.5 176.5t-157.5 53.5q-190 0 -369 -137v-920h-176z" />
<glyph unicode="o" horiz-adv-x="1236" d="M111 585.5q0 614.5 507.5 614.5t507.5 -614.5t-507.5 -614.5t-507.5 614.5zM287 585.5q0 -102.5 12 -178t46 -146.5t102.5 -108.5t171 -37.5t171 37.5t101.5 108.5t46 147.5t13 177t-13 177.5t-46 147.5t-101.5 108.5t-171 38t-171 -38t-102.5 -108.5t-46 -146.5 t-12 -178.5z" />
<glyph unicode="p" horiz-adv-x="1284" d="M217 -479v1650h105l40 -102q179 131 369 131q442 0 443 -616q0 -613 -459 -613q-150 0 -322 64v-490zM393 168q127 -53 289 -53q315 0 315 471q0 202 -70.5 336.5t-230 134.5t-303.5 -105v-784z" />
<glyph unicode="q" horiz-adv-x="1284" d="M110 585.5q0 614.5 457 614.5q201 0 359 -115l35 86h106v-1626l-176 -24v526q-170 -76 -324 -76q-457 0 -457 614.5zM287 586q0 -471 315 -471q152 0 289 67v787q-121 88 -289 88q-315 0 -315 -471z" />
<glyph unicode="r" horiz-adv-x="821" d="M217 0v1171h105l63 -208q143 227 420 237v-162q-276 -10 -412 -233v-805h-176z" />
<glyph unicode="s" horiz-adv-x="1089" d="M106 301l144 23q31 -207 280 -207q276 0 277 186q0 82 -50 121t-179 72l-117 28q-178 45 -253 119t-75 224.5t106.5 241.5t314.5 91t301 -83t120 -240l-146 -23q-27 207 -262 207q-258 0 -258 -187q0 -82 47 -121.5t166 -70.5l119 -29q184 -45 263 -119.5t79 -223 t-110.5 -241t-327.5 -92.5t-314.5 83t-124.5 241z" />
<glyph unicode="t" horiz-adv-x="706" d="M43 1051v120h201v213l176 70v-283h248v-120h-248v-777q0 -92 25.5 -130t74.5 -38t121 17l21 -119q-111 -33 -188 -33t-126 24.5t-69 74.5q-35 74 -35 198v783h-201z" />
<glyph unicode="u" horiz-adv-x="1351" d="M197 336v835h176v-823q0 -121 52 -177t163 -56q199 0 370 202v854h177v-1171h-117l-55 174q-191 -203 -420 -203q-182 0 -264 91.5t-82 273.5z" />
<glyph unicode="v" horiz-adv-x="1089" d="M33 1171h178l334 -966l334 966h178l-416 -1171h-192z" />
<glyph unicode="w" horiz-adv-x="1525" d="M43 1171h178l225 -946l240 844h152l241 -844l226 946h178l-299 -1171h-180l-242 819l-238 -819h-182z" />
<glyph unicode="x" horiz-adv-x="1034" d="M16 0l402 602l-381 569h196l291 -436l287 436h186l-379 -575l400 -596h-197l-311 465l-307 -465h-187z" />
<glyph unicode="y" horiz-adv-x="1112" d="M33 1171h182l346 -948l336 948h180l-622 -1673l-160 29l180 465z" />
<glyph unicode="z" horiz-adv-x="1064" d="M86 0v119l655 917h-630v135h841v-118l-651 -918h678v-135h-893z" />
<glyph unicode="{" horiz-adv-x="620" d="M39 627v118q55 0 102 23t47 76l-16 248q0 416 436 415v-143q-139 0 -195.5 -77t-56.5 -218l17 -242q0 -59 -30 -96t-71 -37v-12q41 0 71 -36t30 -95l-17 -246q0 -141 56.5 -219t195.5 -78v-143q-436 0 -436 416l16 247q0 53 -47 76t-102 23z" />
<glyph unicode="|" horiz-adv-x="665" d="M233 -217v1804h199v-1804h-199z" />
<glyph unicode="}" horiz-adv-x="620" d="M12 8q139 0 195.5 78t56.5 221l-16 246q0 59 29.5 96t70.5 37v12q-41 0 -70.5 36t-29.5 97l16 246q0 137 -56 212t-196 75v143q436 0 437 -415l-17 -248q0 -53 47 -76t103 -23v-118q-55 0 -102.5 -22.5t-47.5 -76.5l17 -247q0 -416 -437 -416v143z" />
<glyph unicode="~" horiz-adv-x="1187" d="M188 582v139q70 -49 159 -49t246 44t244 44t162 -39v-139q-78 43 -163.5 43t-242.5 -44t-243 -44t-162 45z" />
<glyph unicode="&#xa1;" horiz-adv-x="638" d="M209 1064q0 48 5 71.5t31.5 44t85 20.5t79 -33.5t20.5 -81t-5 -71t-30.5 -45t-85 -21.5t-80 34t-20.5 82zM221 25l45 768h109l45 -768v-336h-199v336z" />
<glyph unicode="&#xa2;" horiz-adv-x="1292" d="M178 748q0 223 37 336.5t86 173t135 102.5t205 53v246h123v-244q201 -10 290 -123.5t103 -302.5l-141 -8q-14 291 -289 291q-100 0 -172 -30t-109.5 -74t-59 -118.5t-27 -139t-5.5 -161t6.5 -164t27 -140t54.5 -117.5q84 -104 260.5 -104.5t251 65t78.5 194.5l142 -8 q-14 -180 -105.5 -280.5t-304.5 -114.5v-246h-123v246q-117 6 -202 47t-134 100.5t-80 149.5q-47 143 -47 371z" />
<glyph unicode="&#xa3;" horiz-adv-x="1290" d="M139 643v125h146v317q0 217 98 328t332.5 111t336 -106.5t101.5 -332.5l-156 -10q0 158 -65.5 230.5t-212 72.5t-200.5 -71.5t-54 -221.5v-317h516v-125h-516v-246q0 -98 -21.5 -152.5t-78.5 -99.5h823v-145h-1014v133q111 94 111 240v270h-146z" />
<glyph unicode="&#xa4;" horiz-adv-x="1290" d="M115 303l184 186q-63 104 -63 258t65 257l-186 188l86 86l184 -184q111 84 271.5 84t258.5 -72l175 172l86 -86l-175 -174q74 -109 74 -269.5t-76 -269.5l177 -176l-86 -86l-179 174q-106 -74 -267 -74t-263 80l-180 -180zM393 747.5q0 -118.5 58.5 -199.5t197.5 -81 t204 81t65 199.5t-59.5 199.5t-199 81t-203 -81t-63.5 -199.5z" />
<glyph unicode="&#xa5;" horiz-adv-x="1290" d="M100 1495h189l356 -713l359 713h186l-301 -580h239v-122h-303l-90 -175h393v-124h-395v-494h-176v494h-391v124h389l-90 175h-299v122h235z" />
<glyph unicode="&#xa6;" horiz-adv-x="665" d="M233 -217v688h199v-688h-199zM233 899v688h199v-688h-199z" />
<glyph unicode="&#xa7;" horiz-adv-x="1005" d="M74 639q0 252 266 354q-119 156 -119 294t109.5 240.5t285.5 147.5l37 -137q-102 -27 -178 -85t-76 -133t23.5 -125t83.5 -120l276 -330q150 -175 150 -327q0 -252 -266 -352q119 -152 118.5 -292.5t-111 -243.5t-284.5 -146l-37 135q102 27 178 85t76 134t-24.5 126 t-85.5 124l-273 325q-150 176 -149 326zM252 676q0 -74 22.5 -123t83.5 -121l213 -254q183 66 183 205q0 72 -23.5 123t-87.5 125l-209 250q-182 -68 -182 -205z" />
<glyph unicode="&#xa8;" horiz-adv-x="663" d="M12 1481q0 35 4 56.5t28 40.5t80 19t74.5 -30.5t18.5 -75.5t-4 -65.5t-28.5 -40t-70.5 -19.5t-70 19.5t-28 40t-4 55.5zM446 1481q0 35 4.5 56.5t28 40.5t79.5 19t74.5 -30.5t18.5 -75.5t-4 -65.5t-28.5 -40t-70.5 -19.5t-69.5 19.5t-28 40t-4.5 55.5z" />
<glyph unicode="&#xa9;" horiz-adv-x="1492" d="M133 1147q0 299 158 456.5t455.5 157.5t455.5 -157.5t158 -455.5t-158 -455.5t-457 -157.5t-455.5 156.5t-156.5 455.5zM244 1148q0 -513 502.5 -513t502.5 513t-502.5 513t-502.5 -513zM422 1148q0 214 72.5 320.5t244.5 106.5q248 0 271 -240l-101 -6q-16 152 -168 152 q-109 0 -154.5 -83t-45.5 -251t43 -249t159 -81q82 0 124 49t46 133l99 -4q-16 -274 -271 -274q-178 0 -248.5 106.5t-70.5 320.5z" />
<glyph unicode="&#xaa;" horiz-adv-x="886" d="M74 467v104h688v-104h-688zM90 915.5q0 100.5 63.5 162t235.5 87.5l191 31v74q0 162 -145.5 162t-170.5 -140l-125 39q49 225 299 225q139 0 220 -62t81 -224v-553h-104l-43 112q-129 -133 -285 -133q-111 0 -164 59.5t-53 160zM248 920q0 -104 109.5 -104.5t222.5 116.5 v160l-168 -29q-96 -16 -130 -53t-34 -90z" />
<glyph unicode="&#xab;" horiz-adv-x="1073" d="M57 608v74l351 385l106 -104l-250 -318l250 -317l-106 -105zM506 608v74l350 385l107 -104l-250 -318l250 -317l-107 -105z" />
<glyph unicode="&#xac;" horiz-adv-x="1187" d="M188 582v139h811v-422h-131v283h-680z" />
<glyph unicode="&#xad;" horiz-adv-x="999" d="M139 582v139h721v-139h-721z" />
<glyph unicode="&#xae;" horiz-adv-x="1492" d="M133 1147q0 299 158 456.5t455.5 157.5t455.5 -157.5t158 -455.5t-158 -455.5t-457 -157.5t-455.5 156.5t-156.5 455.5zM244 1148q0 -513 502.5 -513t502.5 513t-502.5 513t-502.5 -513zM502 737v824h256q164 0 217 -86q41 -66 41 -158q0 -190 -137 -230q29 -27 49 -71 l123 -279h-127l-115 267q-27 68 -102 67h-86v-334h-119zM621 1163h135q141 0 141 151.5t-141 151.5h-135v-303z" />
<glyph unicode="&#xaf;" horiz-adv-x="724" d="M98 1409v150h529v-150h-529z" />
<glyph unicode="&#xb0;" horiz-adv-x="862" d="M86 1052.5q0 108.5 11.5 167t43.5 115.5q66 119 289 119q225 0 291 -119q33 -57 44 -115.5t11 -135t-6 -125t-26.5 -101.5t-56.5 -86t-101.5 -54.5t-155.5 -21.5t-154.5 21.5t-100.5 54.5t-56 86q-33 86 -33 194.5zM242 1075.5q0 -63.5 4 -99.5t21.5 -77t57.5 -59.5 t105.5 -18.5t105 18.5t57 59.5t21.5 77t4 99.5t-4 99t-21.5 76.5t-57 59.5t-105 18.5t-105.5 -18.5t-57.5 -59.5t-21.5 -76.5t-4 -99z" />
<glyph unicode="&#xb1;" horiz-adv-x="1187" d="M188 0v139h811v-139h-811zM188 684v139h336v336h140v-336h335v-139h-335v-336h-140v336h-336z" />
<glyph unicode="&#xb2;" horiz-adv-x="800" d="M109 696v97l301 325q104 115 104 191q0 49 -31.5 79.5t-93.5 30.5q-121 0 -133 -114l-137 14q22 225 282 225q131 0 200 -63.5t69 -172t-133 -255.5l-215 -232h362v-125h-575z" />
<glyph unicode="&#xb3;" horiz-adv-x="800" d="M109 905l135 19q10 -125 152.5 -125t142.5 121q0 61 -40 100t-120 39h-45v96h47q74 0 111.5 40t37.5 99q0 127 -131 127q-57 0 -94 -31.5t-43 -86.5l-137 18q14 223 278 223q137 0 210 -67.5t73 -188.5t-135 -178q145 -49 145 -199q0 -102 -80.5 -166.5t-214.5 -64.5 q-272 0 -292 225z" />
<glyph unicode="&#xb4;" horiz-adv-x="634" d="M94 1374l344 320l111 -131l-375 -283z" />
<glyph unicode="&#xb5;" horiz-adv-x="1304" d="M233 -465v1636h177v-905q178 -152 376 -151q123 0 172.5 54t49.5 179v823h176v-835q0 -186 -79 -275.5t-285 -89.5t-410 150v-586h-177z" />
<glyph unicode="&#xb6;" horiz-adv-x="1013" d="M53 974q0 171 100.5 284.5t305.5 113.5h297v-1372h-181v575h-116q-205 0 -305.5 114t-100.5 285z" />
<glyph unicode="&#xb7;" horiz-adv-x="466" d="M123 646q0 32 3 50.5t13 40.5q16 41 90 41t94.5 -33.5t20.5 -82t-5 -72t-31.5 -44t-75 -20.5t-74 20.5t-30.5 44t-5 55.5z" />
<glyph unicode="&#xb8;" horiz-adv-x="604" d="M90 -291h135q0 -31 4 -47q10 -41 69.5 -41t74 21.5t14.5 66.5t-19.5 66.5t-70.5 29.5l-111 21l15 72h86q115 0 171 -39t56 -144.5t-46 -157t-166 -51.5t-166 52.5t-46 150.5z" />
<glyph unicode="&#xb9;" horiz-adv-x="800" d="M176 1370v94q135 12 203 62h127v-830h-162v674h-168z" />
<glyph unicode="&#xba;" horiz-adv-x="862" d="M66 1126q0 430 365.5 430t365.5 -430t-365.5 -430t-365.5 430zM86 467v104h688v-104h-688zM227 1126.5q0 -145.5 42 -224.5t162 -79t162 79t42 224.5t-42 225.5t-162 80t-162 -80t-42 -225.5z" />
<glyph unicode="&#xbb;" horiz-adv-x="1073" d="M61 328l250 317l-250 318l107 104l350 -385v-74l-350 -385zM510 328l250 317l-250 318l106 104l351 -385v-74l-351 -385z" />
<glyph unicode="&#xbc;" horiz-adv-x="2007" d="M190 1341v95q135 12 203 61h127v-829h-162v673h-168zM698 -74l439 1641h125l-441 -1641h-123zM1196 162v114l317 553h236v-544h88v-123h-88v-162h-147v162h-406zM1352 285h250v440z" />
<glyph unicode="&#xbd;" horiz-adv-x="2007" d="M190 1341v95q135 12 203 61h127v-829h-162v673h-168zM682 -74l438 1641h125l-440 -1641h-123zM1251 0v96l301 326q104 115 105 190q0 49 -32 80t-93 31q-121 0 -133 -115l-137 15q22 225 282 225q131 0 199.5 -63.5t68.5 -172t-133 -256.5l-215 -231h363v-125h-576z" />
<glyph unicode="&#xbe;" horiz-adv-x="2007" d="M123 877l135 18q10 -125 152.5 -125t142.5 121q0 61 -40 100t-120 39h-45v96h47q74 0 112 40t38 100q0 127 -131 127q-57 0 -94 -32t-44 -87l-137 18q14 223 279 224q137 0 209.5 -68t72.5 -188.5t-135 -178.5q145 -49 146 -198q0 -102 -81 -167t-214 -65 q-272 0 -293 226zM739 -74l439 1641h125l-441 -1641h-123zM1196 162v114l317 553h236v-544h88v-123h-88v-162h-147v162h-406zM1352 285h250v440z" />
<glyph unicode="&#xbf;" horiz-adv-x="983" d="M74 88q0 315 401 455l23 250h112l17 -312q-199 -66 -290 -159t-91 -221t69.5 -216t204.5 -88q219 0 258 197l152 -21q-25 -145 -129.5 -229t-300 -84t-311 126t-115.5 302zM442 1065q0 47 5.5 70.5t32 44t74.5 20.5t73.5 -20.5t31 -44t5.5 -55t-3.5 -50t-13.5 -39.5 q-16 -43 -89 -43t-94.5 35t-21.5 82z" />
<glyph unicode="&#xc0;" horiz-adv-x="1286" d="M35 0l487 1495h240l489 -1495h-178l-145 451h-570l-145 -451h-178zM403 594h478l-238 741zM416 1886l110 131l344 -319l-79 -94z" />
<glyph unicode="&#xc1;" horiz-adv-x="1286" d="M35 0l487 1495h240l489 -1495h-178l-145 451h-570l-145 -451h-178zM403 594h478l-238 741zM424 1698l344 319l111 -131l-375 -282z" />
<glyph unicode="&#xc2;" horiz-adv-x="1286" d="M35 0l487 1495h240l489 -1495h-178l-145 451h-570l-145 -451h-178zM336 1692l274 313h76l275 -313l-74 -74l-240 197l-237 -197zM403 594h478l-238 741z" />
<glyph unicode="&#xc3;" horiz-adv-x="1286" d="M35 0l487 1495h240l489 -1495h-178l-145 451h-570l-145 -451h-178zM309 1722q31 111 77 157t104.5 46t159 -37t132 -37t52 20.5t36.5 70.5l115 -37q-55 -203 -182 -203q-57 0 -156.5 37t-131.5 37t-52.5 -21.5t-36.5 -68.5zM403 594h478l-238 741z" />
<glyph unicode="&#xc4;" horiz-adv-x="1286" d="M35 0l487 1495h240l489 -1495h-178l-145 451h-570l-145 -451h-178zM328 1804q0 35 4 56.5t27.5 41t80 19.5t74.5 -30.5t18 -76t-4 -65.5t-28.5 -39.5t-70.5 -19.5t-69.5 19.5t-27.5 39.5t-4 55zM403 594h478l-238 741zM762 1804q0 35 4 56.5t27.5 41t80 19.5t75 -30.5 t18.5 -76t-4.5 -65.5t-29 -39.5t-70.5 -19.5t-69.5 19.5t-27.5 39.5t-4 55z" />
<glyph unicode="&#xc5;" horiz-adv-x="1286" d="M35 0l487 1495h240l489 -1495h-178l-145 451h-570l-145 -451h-178zM403 594h478l-238 741zM436 1808q0 53 14.5 97.5t63.5 81t131 36.5q213 0 213 -214t-213 -214q-209 0 -209 213zM555 1808.5q0 -116.5 90 -116.5q96 0 96 116.5t-96 116.5q-90 0 -90 -116.5z" />
<glyph unicode="&#xc6;" horiz-adv-x="1865" d="M59 0l637 1495h1035v-143h-615v-561h572v-144h-572v-504h656v-143h-836v647h-426l-272 -647h-179zM571 791h365v559h-129z" />
<glyph unicode="&#xc7;" horiz-adv-x="1306" d="M152 748.5q0 193.5 25.5 328.5t88.5 240q123 207 461 207q223 0 331.5 -101.5t133.5 -289.5l-145 -27q-44 270 -320 270q-190 0 -285 -106q-84 -92 -102 -303q-8 -88 -8 -217t8 -220.5t33.5 -173.5t68.5 -131q94 -106 285 -106q315 0 326 336l147 -9 q-14 -227 -123.5 -351t-349.5 -124q-338 0 -461 209q-63 104 -88.5 239.5t-25.5 329zM446 -291h136q0 -31 4 -47q10 -41 69.5 -41t73.5 21.5t14 66.5t-19 66.5t-71 29.5l-110 21l14 72h86q115 0 171 -39t56 -144.5t-46 -157t-165.5 -51.5t-166 52.5t-46.5 150.5z" />
<glyph unicode="&#xc8;" horiz-adv-x="1146" d="M217 0v1495h795v-143h-615v-521h572v-143h-572v-545h656v-143h-836zM362 1886l111 131l344 -319l-80 -94z" />
<glyph unicode="&#xc9;" horiz-adv-x="1146" d="M217 0v1495h795v-143h-615v-521h572v-143h-572v-545h656v-143h-836zM436 1698l344 319l111 -131l-375 -282z" />
<glyph unicode="&#xca;" horiz-adv-x="1146" d="M217 0v1495h795v-143h-615v-521h572v-143h-572v-545h656v-143h-836zM283 1692l274 313h76l274 -313l-73 -74l-240 197l-238 -197z" />
<glyph unicode="&#xcb;" horiz-adv-x="1146" d="M217 0v1495h795v-143h-615v-521h572v-143h-572v-545h656v-143h-836zM274 1804q0 35 4.5 56.5t28 41t79.5 19.5t74.5 -30.5t18.5 -76t-4 -65.5t-28.5 -39.5t-70.5 -19.5t-69.5 19.5t-28 39.5t-4.5 55zM709 1804q0 35 4 56.5t27.5 41t80 19.5t74.5 -30.5t18 -76t-4 -65.5 t-28.5 -39.5t-70.5 -19.5t-69.5 19.5t-27.5 39.5t-4 55z" />
<glyph unicode="&#xcc;" horiz-adv-x="614" d="M76 1886l110 131l344 -319l-79 -94zM217 0v1495h180v-1495h-180z" />
<glyph unicode="&#xcd;" horiz-adv-x="614" d="M125 1698l344 319l111 -131l-375 -282zM217 0v1495h180v-1495h-180z" />
<glyph unicode="&#xce;" horiz-adv-x="614" d="M-4 1692l274 313h76l275 -313l-74 -74l-240 197l-237 -197zM217 0v1495h180v-1495h-180z" />
<glyph unicode="&#xcf;" horiz-adv-x="614" d="M-12 1804q0 35 4 56.5t27.5 41t80 19.5t75 -30.5t18.5 -76t-4.5 -65.5t-29 -39.5t-70.5 -19.5t-69.5 19.5t-27.5 39.5t-4 55zM217 0v1495h180v-1495h-180zM422 1804q0 35 4 56.5t27.5 41t80 19.5t75 -30.5t18.5 -76t-4.5 -65.5t-29 -39.5t-70.5 -19.5t-69.5 19.5 t-27.5 39.5t-4 55z" />
<glyph unicode="&#xd0;" horiz-adv-x="1429" d="M119 676v139h98v680h455q352 0 477 -221q61 -106 84.5 -231t23.5 -278t-13 -257.5t-52 -203.5t-102 -163q-145 -141 -418 -141h-455v676h-98zM397 143h267q201 0 299 115q115 139 114.5 489.5t-114.5 489.5q-98 115 -299 115h-267v-537h443v-139h-443v-533z" />
<glyph unicode="&#xd1;" horiz-adv-x="1523" d="M217 0v1495h197l712 -1194v1194h181v-1495h-197l-713 1192v-1192h-180zM436 1722q31 111 77 157t104.5 46t159 -37t132 -37t52 20.5t36.5 70.5l115 -37q-55 -203 -182 -203q-57 0 -156.5 37t-131.5 37t-52.5 -21.5t-36.5 -68.5z" />
<glyph unicode="&#xd2;" horiz-adv-x="1476" d="M152 728q0 157 14 266.5t54 212t104 169.5q141 147 413 148q344 0 473 -230q63 -111 89 -241.5t26 -306t-25.5 -306.5t-89 -241.5t-182.5 -169t-292 -58.5t-290.5 57.5t-180 169t-88 242.5t-25.5 288zM332 747q0 -358 119 -507q96 -121 299 -121q106 0 189 48t126 137 t61.5 196.5t18.5 247t-18.5 247t-61.5 197.5q-90 184 -328 184q-190 0 -286 -121q-119 -150 -119 -508zM506 1886l110 131l345 -319l-80 -94z" />
<glyph unicode="&#xd3;" horiz-adv-x="1476" d="M152 728q0 157 14 266.5t54 212t104 169.5q141 147 413 148q344 0 473 -230q63 -111 89 -241.5t26 -306t-25.5 -306.5t-89 -241.5t-182.5 -169t-292 -58.5t-290.5 57.5t-180 169t-88 242.5t-25.5 288zM332 747q0 -358 119 -507q96 -121 299 -121q106 0 189 48t126 137 t61.5 196.5t18.5 247t-18.5 247t-61.5 197.5q-90 184 -328 184q-190 0 -286 -121q-119 -150 -119 -508zM514 1698l344 319l111 -131l-375 -282z" />
<glyph unicode="&#xd4;" horiz-adv-x="1476" d="M152 728q0 157 14 266.5t54 212t104 169.5q141 147 413 148q344 0 473 -230q63 -111 89 -241.5t26 -306t-25.5 -306.5t-89 -241.5t-182.5 -169t-292 -58.5t-290.5 57.5t-180 169t-88 242.5t-25.5 288zM332 747q0 -358 119 -507q96 -121 299 -121q106 0 189 48t126 137 t61.5 196.5t18.5 247t-18.5 247t-61.5 197.5q-90 184 -328 184q-190 0 -286 -121q-119 -150 -119 -508zM426 1692l274 313h76l275 -313l-74 -74l-240 197l-237 -197z" />
<glyph unicode="&#xd5;" horiz-adv-x="1476" d="M152 728q0 157 14 266.5t54 212t104 169.5q141 147 413 148q344 0 473 -230q63 -111 89 -241.5t26 -306t-25.5 -306.5t-89 -241.5t-182.5 -169t-292 -58.5t-290.5 57.5t-180 169t-88 242.5t-25.5 288zM332 747q0 -358 119 -507q96 -121 299 -121q106 0 189 48t126 137 t61.5 196.5t18.5 247t-18.5 247t-61.5 197.5q-90 184 -328 184q-190 0 -286 -121q-119 -150 -119 -508zM399 1722q31 111 77 157t104.5 46t159 -37t132 -37t52 20.5t37.5 70.5l114 -37q-55 -203 -182 -203q-57 0 -156.5 37t-131.5 37t-52.5 -21.5t-36.5 -68.5z" />
<glyph unicode="&#xd6;" horiz-adv-x="1476" d="M152 728q0 157 14 266.5t54 212t104 169.5q141 147 413 148q344 0 473 -230q63 -111 89 -241.5t26 -306t-25.5 -306.5t-89 -241.5t-182.5 -169t-292 -58.5t-290.5 57.5t-180 169t-88 242.5t-25.5 288zM332 747q0 -358 119 -507q96 -121 299 -121q106 0 189 48t126 137 t61.5 196.5t18.5 247t-18.5 247t-61.5 197.5q-90 184 -328 184q-190 0 -286 -121q-119 -150 -119 -508zM418 1804q0 35 4 56.5t27.5 41t80 19.5t75 -30.5t18.5 -76t-4.5 -65.5t-29 -39.5t-70.5 -19.5t-69.5 19.5t-27.5 39.5t-4 55zM852 1804q0 35 4 56.5t27.5 41t80 19.5 t75 -30.5t18.5 -76t-4 -65.5t-29 -39.5t-71 -19.5t-69.5 19.5t-27.5 39.5t-4 55z" />
<glyph unicode="&#xd7;" horiz-adv-x="1187" d="M223 377l273 274l-273 275l96 96l275 -272l274 272l97 -96l-273 -275l273 -274l-97 -96l-274 272l-275 -272z" />
<glyph unicode="&#xd8;" horiz-adv-x="1476" d="M152 748q0 446 172 628q141 147 413 148q45 0 115 -8l43 178h125l-49 -207q201 -68 282 -279q72 -184 72 -460q0 -176 -25.5 -307.5t-89.5 -241.5q-131 -227 -473 -228q-45 0 -119 9l-38 -173h-123l45 199q-195 70 -272.5 258.5t-77.5 483.5zM332 748q0 -465 207 -584 l280 1204q-53 8 -82 8q-190 0 -286 -121q-119 -149 -119 -507zM653 125q37 -6 84 -6q238 0 328 184q80 166 80 445q0 461 -211 581z" />
<glyph unicode="&#xd9;" horiz-adv-x="1427" d="M186 494v1001h181v-995q0 -238 112 -316q55 -37 108.5 -49t126 -12t126 12t108.5 49q113 76 113 316v995h180v-1001q0 -137 -32.5 -235.5t-81 -153t-124 -86t-140 -40t-150.5 -8.5t-150.5 8.5t-139.5 40t-123 86t-81 152.5t-33 236zM434 1886l111 131l344 -319l-80 -94z " />
<glyph unicode="&#xda;" horiz-adv-x="1427" d="M186 494v1001h181v-995q0 -238 112 -316q55 -37 108.5 -49t126 -12t126 12t108.5 49q113 76 113 316v995h180v-1001q0 -137 -32.5 -235.5t-81 -153t-124 -86t-140 -40t-150.5 -8.5t-150.5 8.5t-139.5 40t-123 86t-81 152.5t-33 236zM606 1698l344 319l111 -131l-375 -282 z" />
<glyph unicode="&#xdb;" horiz-adv-x="1427" d="M186 494v1001h181v-995q0 -238 112 -316q55 -37 108.5 -49t126 -12t126 12t108.5 49q113 76 113 316v995h180v-1001q0 -137 -32.5 -235.5t-81 -153t-124 -86t-140 -40t-150.5 -8.5t-150.5 8.5t-139.5 40t-123 86t-81 152.5t-33 236zM414 1692l274 313h76l274 -313 l-73 -74l-240 197l-238 -197z" />
<glyph unicode="&#xdc;" horiz-adv-x="1427" d="M186 494v1001h181v-995q0 -238 112 -316q55 -37 108.5 -49t126 -12t126 12t108.5 49q113 76 113 316v995h180v-1001q0 -137 -32.5 -235.5t-81 -153t-124 -86t-140 -40t-150.5 -8.5t-150.5 8.5t-139.5 40t-123 86t-81 152.5t-33 236zM408 1804q0 35 4 56.5t27.5 41 t79.5 19.5t74.5 -30.5t18.5 -76t-4 -65.5t-28.5 -39.5t-70.5 -19.5t-69.5 19.5t-27.5 39.5t-4 55zM842 1804q0 35 4 56.5t27.5 41t80 19.5t75 -30.5t18.5 -76t-4.5 -65.5t-29 -39.5t-70.5 -19.5t-69.5 19.5t-27.5 39.5t-4 55z" />
<glyph unicode="&#xdd;" horiz-adv-x="1126" d="M12 1495h185l366 -799l367 799h184l-461 -975v-520h-180v520zM379 1698l344 319l111 -131l-375 -282z" />
<glyph unicode="&#xde;" horiz-adv-x="1189" d="M217 0v1495h180v-283h254q453 0 453 -465.5t-453 -465.5h-254v-281h-180zM397 436h244q111 0 176.5 45t86 108.5t20.5 181.5t-60.5 202t-222.5 84h-244v-621z" />
<glyph unicode="&#xdf;" horiz-adv-x="1314" d="M238 0v1133q0 193 119.5 301t336.5 108t332 -107.5t115 -293.5q0 -102 -48.5 -190.5t-127.5 -145.5q137 -27 217 -131.5t80 -283.5t-95.5 -299t-287 -120t-275.5 101.5t-84 302.5h148q0 -131 45 -194.5t158.5 -63.5t163.5 83t50 217t-56 213t-193 79h-228v133h131 q109 0 167.5 86t58.5 209t-70 191.5t-206 68.5t-205.5 -70t-69.5 -194v-1133h-176z" />
<glyph unicode="&#xe0;" horiz-adv-x="1200" d="M109 274.5q0 139.5 87 225.5t326 125l305 49v117q0 152 -64.5 209t-176.5 57q-225 0 -269 -219l-143 43q33 152 137.5 235.5t284 83.5t285.5 -78q123 -88 123 -331v-791h-117l-45 182q-197 -211 -432 -211q-156 0 -228.5 82t-72.5 221.5zM283 281.5q0 -80.5 43 -128 t133 -47.5q184 0 368 199v246l-288 -49q-145 -27 -200.5 -83.5t-55.5 -137zM350 1563l111 131l344 -320l-80 -94z" />
<glyph unicode="&#xe1;" horiz-adv-x="1200" d="M109 274.5q0 139.5 87 225.5t326 125l305 49v117q0 152 -64.5 209t-176.5 57q-225 0 -269 -219l-143 43q33 152 137.5 235.5t284 83.5t285.5 -78q123 -88 123 -331v-791h-117l-45 182q-197 -211 -432 -211q-156 0 -228.5 82t-72.5 221.5zM283 281.5q0 -80.5 43 -128 t133 -47.5q184 0 368 199v246l-288 -49q-145 -27 -200.5 -83.5t-55.5 -137zM453 1374l344 320l110 -131l-375 -283z" />
<glyph unicode="&#xe2;" horiz-adv-x="1200" d="M109 274.5q0 139.5 87 225.5t326 125l305 49v117q0 152 -64.5 209t-176.5 57q-225 0 -269 -219l-143 43q33 152 137.5 235.5t284 83.5t285.5 -78q123 -88 123 -331v-791h-117l-45 182q-197 -211 -432 -211q-156 0 -228.5 82t-72.5 221.5zM270 1368l275 313h76l274 -313 l-74 -74l-239 197l-238 -197zM283 281.5q0 -80.5 43 -128t133 -47.5q184 0 368 199v246l-288 -49q-145 -27 -200.5 -83.5t-55.5 -137z" />
<glyph unicode="&#xe3;" horiz-adv-x="1200" d="M109 274.5q0 139.5 87 225.5t326 125l305 49v117q0 152 -64.5 209t-176.5 57q-225 0 -269 -219l-143 43q33 152 137.5 235.5t284 83.5t285.5 -78q123 -88 123 -331v-791h-117l-45 182q-197 -211 -432 -211q-156 0 -228.5 82t-72.5 221.5zM244 1399q31 111 77 157t104 46 t158.5 -37t132.5 -37t52 20.5t37 69.5l115 -37q-55 -203 -183 -203q-57 0 -156.5 37t-131 37t-52 -21.5t-37.5 -68.5zM283 281.5q0 -80.5 43 -128t133 -47.5q184 0 368 199v246l-288 -49q-145 -27 -200.5 -83.5t-55.5 -137z" />
<glyph unicode="&#xe4;" horiz-adv-x="1200" d="M109 274.5q0 139.5 87 225.5t326 125l305 49v117q0 152 -64.5 209t-176.5 57q-225 0 -269 -219l-143 43q33 152 137.5 235.5t284 83.5t285.5 -78q123 -88 123 -331v-791h-117l-45 182q-197 -211 -432 -211q-156 0 -228.5 82t-72.5 221.5zM283 281.5q0 -80.5 43 -128 t133 -47.5q184 0 368 199v246l-288 -49q-145 -27 -200.5 -83.5t-55.5 -137zM297 1481q0 35 4 56.5t27.5 40.5t80 19t75 -30.5t18.5 -75.5t-4 -65.5t-29 -40t-71 -19.5t-69.5 19.5t-27.5 40t-4 55.5zM731 1481q0 35 4 56.5t27.5 40.5t80 19t75 -30.5t18.5 -75.5t-4 -65.5 t-28.5 -40t-71 -19.5t-70 19.5t-27.5 40t-4 55.5z" />
<glyph unicode="&#xe5;" horiz-adv-x="1200" d="M109 274.5q0 139.5 87 225.5t326 125l305 49v117q0 152 -64.5 209t-176.5 57q-225 0 -269 -219l-143 43q33 152 137.5 235.5t284 83.5t285.5 -78q123 -88 123 -331v-791h-117l-45 182q-197 -211 -432 -211q-156 0 -228.5 82t-72.5 221.5zM283 281.5q0 -80.5 43 -128 t133 -47.5q184 0 368 199v246l-288 -49q-145 -27 -200.5 -83.5t-55.5 -137zM412 1485q0 53 14 97t63.5 81t131.5 37q213 0 213 -214t-213 -214q-209 0 -209 213zM531 1485q0 -117 90 -117q96 0 96 117t-96 117q-90 0 -90 -117z" />
<glyph unicode="&#xe6;" horiz-adv-x="1900" d="M106 275.5q0 138.5 87.5 226.5t324.5 129l305 53v107q0 152 -63.5 209t-175 57t-181 -57.5t-90.5 -161.5l-141 41q70 322 414 321q266 0 358 -160q123 160 373 160q483 0 483 -590v-43h-799q2 -242 74 -347t250 -105q291 0 311 235l146 -8q-39 -371 -457 -371 q-334 0 -440 250q-217 -250 -471 -250q-158 0 -233 83t-75 221.5zM279 279.5q0 -78.5 44 -126t136 -47.5q207 0 391 220q-23 131 -23 225l-290 -53q-147 -27 -202.5 -83.5t-55.5 -135zM1006 698h618q-10 172 -77.5 265.5t-227.5 93.5t-229.5 -95.5t-83.5 -263.5z" />
<glyph unicode="&#xe7;" horiz-adv-x="1126" d="M111 546.5q0 170.5 20.5 272t71.5 193.5q106 188 391 188q227 0 327.5 -93t112.5 -269l-141 -21q-6 119 -72.5 179.5t-220.5 60.5q-188 0 -256 -146q-57 -120 -57 -325q0 -100 12 -178t45 -148q68 -145 256 -145q154 0 220.5 60.5t72.5 178.5l143 -6 q-14 -182 -114.5 -279.5t-327.5 -97.5q-322 0 -426 262q-57 143 -57 313.5zM354 -291h135q0 -31 5 -47q10 -41 69.5 -41t73.5 21.5t14 66.5t-19.5 66.5t-70.5 29.5l-110 21l14 72h86q115 0 171 -39t56 -144.5t-46 -157t-166 -51.5t-166 52.5t-46 150.5z" />
<glyph unicode="&#xe8;" horiz-adv-x="1183" d="M111 586q0 614 489 614q483 0 483 -590v-43h-798q2 -242 73.5 -347t249.5 -105q291 0 312 235l145 -8q-39 -371 -457 -371q-268 0 -382.5 152.5t-114.5 462.5zM289 698h618q-10 172 -77.5 265.5t-227.5 93.5t-229.5 -95.5t-83.5 -263.5zM377 1563l110 131l344 -320 l-79 -94z" />
<glyph unicode="&#xe9;" horiz-adv-x="1183" d="M111 586q0 614 489 614q483 0 483 -590v-43h-798q2 -242 73.5 -347t249.5 -105q291 0 312 235l145 -8q-39 -371 -457 -371q-268 0 -382.5 152.5t-114.5 462.5zM289 698h618q-10 172 -77.5 265.5t-227.5 93.5t-229.5 -95.5t-83.5 -263.5zM463 1374l344 320l111 -131 l-375 -283z" />
<glyph unicode="&#xea;" horiz-adv-x="1183" d="M111 586q0 614 489 614q483 0 483 -590v-43h-798q2 -242 73.5 -347t249.5 -105q291 0 312 235l145 -8q-39 -371 -457 -371q-268 0 -382.5 152.5t-114.5 462.5zM289 698h618q-10 172 -77.5 265.5t-227.5 93.5t-229.5 -95.5t-83.5 -263.5zM297 1368l274 313h76l275 -313 l-74 -74l-240 197l-237 -197z" />
<glyph unicode="&#xeb;" horiz-adv-x="1167" d="M94 586q0 614 490 614q483 0 483 -590v-43h-799q2 -242 74 -347t250 -105q291 0 311 235l146 -8q-39 -371 -457 -371q-268 0 -383 152.5t-115 462.5zM272 698h619q-10 172 -78 265.5t-227.5 93.5t-229 -95.5t-84.5 -263.5zM272 1481q0 35 4.5 56.5t28 40.5t79.5 19 t74.5 -30.5t18.5 -75.5t-4 -65.5t-28.5 -40t-70.5 -19.5t-69.5 19.5t-28 40t-4.5 55.5zM707 1481q0 35 4 56.5t27.5 40.5t79.5 19t74.5 -30.5t18.5 -75.5t-4 -65.5t-28.5 -40t-70.5 -19.5t-69.5 19.5t-27.5 40t-4 55.5z" />
<glyph unicode="&#xec;" horiz-adv-x="610" d="M53 1563l111 131l344 -320l-80 -94zM217 0v1171h176v-1171h-176z" />
<glyph unicode="&#xed;" horiz-adv-x="610" d="M113 1374l344 320l110 -131l-374 -283zM217 0v1171h176v-1171h-176z" />
<glyph unicode="&#xee;" horiz-adv-x="610" d="M-27 1368l275 313h76l274 -313l-74 -74l-239 197l-238 -197zM217 0v1171h176v-1171h-176z" />
<glyph unicode="&#xef;" horiz-adv-x="610" d="M-14 1481q0 35 4 56.5t27.5 40.5t80 19t74.5 -30.5t18 -75.5t-4 -65.5t-28.5 -40t-70.5 -19.5t-69.5 19.5t-27.5 40t-4 55.5zM217 0v1171h176v-1171h-176zM420 1481q0 35 4 56.5t27.5 40.5t80 19t75 -30.5t18.5 -75.5t-4.5 -65.5t-29 -40t-70.5 -19.5t-69.5 19.5 t-27.5 40t-4 55.5z" />
<glyph unicode="&#xf0;" horiz-adv-x="1236" d="M111 504q0 209 98 356q53 82 157.5 129t267.5 47t281 -114q-49 186 -147 335l-215 -86v129l141 56q-41 49 -102 106l86 103q82 -72 151 -154l252 102v-129l-178 -71q223 -328 223 -766v-43q0 -397 -299 -500q-90 -33 -208.5 -33t-210 32t-146.5 83t-90 123 q-61 127 -61 295zM287 504q0 -391 331.5 -391t331.5 391t-331.5 391t-331.5 -391z" />
<glyph unicode="&#xf1;" horiz-adv-x="1339" d="M217 0v1171h105l49 -122q207 152 407.5 151.5t282.5 -91.5t82 -278v-831h-176v827q0 123 -47.5 176.5t-157.5 53.5q-190 0 -369 -137v-920h-176zM362 1399q31 111 77 157t104.5 46t159 -37t132 -37t52 20.5t37.5 69.5l114 -37q-55 -203 -182 -203q-57 0 -156.5 37 t-131 37t-52 -21.5t-37.5 -68.5z" />
<glyph unicode="&#xf2;" horiz-adv-x="1236" d="M111 585.5q0 614.5 507.5 614.5t507.5 -614.5t-507.5 -614.5t-507.5 614.5zM287 585.5q0 -102.5 12 -178t46 -146.5t102.5 -108.5t171 -37.5t171 37.5t101.5 108.5t46 147.5t13 177t-13 177.5t-46 147.5t-101.5 108.5t-171 38t-171 -38t-102.5 -108.5t-46 -146.5 t-12 -178.5zM387 1563l111 131l344 -320l-80 -94z" />
<glyph unicode="&#xf3;" horiz-adv-x="1236" d="M111 585.5q0 614.5 507.5 614.5t507.5 -614.5t-507.5 -614.5t-507.5 614.5zM287 585.5q0 -102.5 12 -178t46 -146.5t102.5 -108.5t171 -37.5t171 37.5t101.5 108.5t46 147.5t13 177t-13 177.5t-46 147.5t-101.5 108.5t-171 38t-171 -38t-102.5 -108.5t-46 -146.5 t-12 -178.5zM471 1374l344 320l111 -131l-375 -283z" />
<glyph unicode="&#xf4;" horiz-adv-x="1236" d="M111 585.5q0 614.5 507.5 614.5t507.5 -614.5t-507.5 -614.5t-507.5 614.5zM287 585.5q0 -102.5 12 -178t46 -146.5t102.5 -108.5t171 -37.5t171 37.5t101.5 108.5t46 147.5t13 177t-13 177.5t-46 147.5t-101.5 108.5t-171 38t-171 -38t-102.5 -108.5t-46 -146.5 t-12 -178.5zM305 1368l275 313h75l275 -313l-74 -74l-240 197l-237 -197z" />
<glyph unicode="&#xf5;" horiz-adv-x="1236" d="M111 585.5q0 614.5 507.5 614.5t507.5 -614.5t-507.5 -614.5t-507.5 614.5zM281 1399q31 111 76.5 157t104 46t159 -37t132 -37t52 20.5t37.5 69.5l114 -37q-55 -203 -182 -203q-57 0 -156.5 37t-131 37t-52 -21.5t-37.5 -68.5zM287 585.5q0 -102.5 12 -178t46 -146.5 t102.5 -108.5t171 -37.5t171 37.5t101.5 108.5t46 147.5t13 177t-13 177.5t-46 147.5t-101.5 108.5t-171 38t-171 -38t-102.5 -108.5t-46 -146.5t-12 -178.5z" />
<glyph unicode="&#xf6;" horiz-adv-x="1236" d="M111 585.5q0 614.5 507.5 614.5t507.5 -614.5t-507.5 -614.5t-507.5 614.5zM287 585.5q0 -102.5 12 -178t46 -146.5t102.5 -108.5t171 -37.5t171 37.5t101.5 108.5t46 147.5t13 177t-13 177.5t-46 147.5t-101.5 108.5t-171 38t-171 -38t-102.5 -108.5t-46 -146.5 t-12 -178.5zM299 1481q0 35 4 56.5t27.5 40.5t80 19t75 -30.5t18.5 -75.5t-4 -65.5t-29 -40t-71 -19.5t-69.5 19.5t-27.5 40t-4 55.5zM733 1481q0 35 4 56.5t27.5 40.5t80 19t75 -30.5t18.5 -75.5t-4 -65.5t-28.5 -40t-71 -19.5t-70 19.5t-27.5 40t-4 55.5z" />
<glyph unicode="&#xf7;" horiz-adv-x="1187" d="M188 582v139h811v-139h-811zM487.5 287q-0.5 39 3 57t13.5 41q16 41 88 41q76 0 92 -41q16 -37 16 -76t-3 -57.5t-12 -40t-32.5 -31.5t-59.5 -10t-58.5 10t-30.5 33q-16 35 -16.5 74zM487.5 973q-0.5 39 3 57.5t13.5 38.5q16 43 88 43q76 0 92 -43q16 -35 16 -74t-3 -57 t-12 -39.5t-32.5 -32t-59.5 -10.5t-58.5 10.5t-30.5 30.5q-16 37 -16.5 76z" />
<glyph unicode="&#xf8;" horiz-adv-x="1236" d="M111 586q0 614 507 614q39 0 101 -8l57 213h125l-65 -242q291 -113 290 -577q0 -614 -508 -615q-53 0 -100 6l-57 -213h-123l63 242q-290 111 -290 580zM287 586q0 -338 155 -430l240 895q-31 6 -64 6q-203 0 -274 -148q-57 -120 -57 -323zM555 119q20 -4 63 -4 q205 0 273 147q59 127 59 324q0 334 -155 428z" />
<glyph unicode="&#xf9;" horiz-adv-x="1351" d="M197 336v835h176v-823q0 -121 52 -177t163 -56q199 0 370 202v854h177v-1171h-117l-55 174q-191 -203 -420 -203q-182 0 -264 91.5t-82 273.5zM393 1563l111 131l344 -320l-80 -94z" />
<glyph unicode="&#xfa;" horiz-adv-x="1351" d="M197 336v835h176v-823q0 -121 52 -177t163 -56q199 0 370 202v854h177v-1171h-117l-55 174q-191 -203 -420 -203q-182 0 -264 91.5t-82 273.5zM547 1374l344 320l110 -131l-374 -283z" />
<glyph unicode="&#xfb;" horiz-adv-x="1351" d="M197 336v835h176v-823q0 -121 52 -177t163 -56q199 0 370 202v854h177v-1171h-117l-55 174q-191 -203 -420 -203q-182 0 -264 91.5t-82 273.5zM375 1368l274 313h76l274 -313l-73 -74l-240 197l-237 -197z" />
<glyph unicode="&#xfc;" horiz-adv-x="1351" d="M197 336v835h176v-823q0 -121 52 -177t163 -56q199 0 370 202v854h177v-1171h-117l-55 174q-191 -203 -420 -203q-182 0 -264 91.5t-82 273.5zM367 1481q0 35 4 56.5t27.5 40.5t80 19t74.5 -30.5t18 -75.5t-4 -65.5t-28.5 -40t-70.5 -19.5t-69.5 19.5t-27.5 40t-4 55.5z M801 1481q0 35 4 56.5t27.5 40.5t80 19t75 -30.5t18.5 -75.5t-4.5 -65.5t-29 -40t-70.5 -19.5t-69.5 19.5t-27.5 40t-4 55.5z" />
<glyph unicode="&#xfd;" horiz-adv-x="1110" d="M33 1171h182l346 -948l336 948h180l-622 -1673l-160 29l180 465zM391 1374l344 320l111 -131l-375 -283z" />
<glyph unicode="&#xfe;" horiz-adv-x="1288" d="M217 -455v1950l176 37v-457q160 125 330 125q455 0 455 -614.5t-455 -614.5q-164 0 -330 70v-496h-176zM393 182q137 -59 312 -59q297 0 297 463t-297 463q-170 0 -312 -127v-740z" />
<glyph unicode="&#xff;" horiz-adv-x="1110" d="M33 1171h182l346 -948l336 948h180l-622 -1673l-160 29l180 465zM270 1481q0 35 4.5 56.5t28 40.5t79.5 19t74.5 -30.5t18.5 -75.5t-4 -65.5t-28.5 -40t-70.5 -19.5t-69.5 19.5t-28 40t-4.5 55.5zM705 1481q0 35 4 56.5t27.5 40.5t79.5 19t74.5 -30.5t18.5 -75.5 t-4 -65.5t-28.5 -40t-70.5 -19.5t-69.5 19.5t-27.5 40t-4 55.5z" />
<glyph unicode="&#x152;" horiz-adv-x="1980" d="M152 746.5q0 181.5 24.5 310.5t85.5 233q125 205 465 205h1118v-143h-704q147 -154 162 -521h499v-143h-499q-6 -387 -160 -545h743v-143h-1159q-338 0 -465 205q-61 102 -85.5 231t-24.5 310.5zM332 747.5q0 -284.5 78 -436.5q82 -166 312 -166t316 152t86 451 t-86 450.5t-311 151.5q-236 0 -317 -166q-78 -152 -78 -436.5z" />
<glyph unicode="&#x153;" horiz-adv-x="2025" d="M110.5 585.5q0.5 614.5 507.5 614.5q297 0 418 -213q121 213 406 213q483 0 483 -590v-43h-799q4 -236 77 -344t247 -108q287 0 311 235l146 -8q-39 -371 -457 -371q-303 0 -416 207q-123 -207 -416 -207q-508 0 -507.5 614.5zM287 586q-1 -344 159 -434 q70 -37 170.5 -37t168 35.5t102.5 101.5q63 119 63 309q0 209 -55 340q-68 156 -277 156q-203 0 -274 -148q-57 -121 -57 -323zM1130 698h619q-10 172 -77.5 265.5t-228.5 93.5t-229.5 -95.5t-83.5 -263.5z" />
<glyph unicode="&#x178;" horiz-adv-x="1126" d="M12 1495h185l366 -799l367 799h184l-461 -975v-520h-180v520zM244 1804q0 35 4 56.5t27.5 41t80 19.5t75 -30.5t18.5 -76t-4.5 -65.5t-29 -39.5t-70.5 -19.5t-69.5 19.5t-27.5 39.5t-4 55zM678 1804q0 35 4 56.5t27.5 41t80 19.5t75 -30.5t18.5 -76t-4.5 -65.5t-29 -39.5 t-70.5 -19.5t-69.5 19.5t-27.5 39.5t-4 55z" />
<glyph unicode="&#x2c6;" horiz-adv-x="813" d="M94 1368l275 313h75l275 -313l-74 -74l-239 197l-238 -197z" />
<glyph unicode="&#x2dc;" horiz-adv-x="831" d="M78 1399q31 111 77 157t104 46t158.5 -37t132.5 -37t52.5 20.5t36.5 69.5l115 -37q-57 -203 -181 -203q-59 0 -158.5 37t-131 37t-52 -21.5t-36.5 -68.5z" />
<glyph unicode="&#x2000;" horiz-adv-x="1011" />
<glyph unicode="&#x2001;" horiz-adv-x="2023" />
<glyph unicode="&#x2002;" horiz-adv-x="1011" />
<glyph unicode="&#x2003;" horiz-adv-x="2023" />
<glyph unicode="&#x2004;" horiz-adv-x="674" />
<glyph unicode="&#x2005;" horiz-adv-x="505" />
<glyph unicode="&#x2006;" horiz-adv-x="337" />
<glyph unicode="&#x2007;" horiz-adv-x="337" />
<glyph unicode="&#x2008;" horiz-adv-x="252" />
<glyph unicode="&#x2009;" horiz-adv-x="404" />
<glyph unicode="&#x200a;" horiz-adv-x="112" />
<glyph unicode="&#x2010;" horiz-adv-x="999" d="M139 582v139h721v-139h-721z" />
<glyph unicode="&#x2011;" horiz-adv-x="999" d="M139 582v139h721v-139h-721z" />
<glyph unicode="&#x2012;" horiz-adv-x="999" d="M139 582v139h721v-139h-721z" />
<glyph unicode="&#x2013;" horiz-adv-x="1179" d="M139 582v139h901v-139h-901z" />
<glyph unicode="&#x2014;" horiz-adv-x="1861" d="M139 582v139h1583v-139h-1583z" />
<glyph unicode="&#x2018;" horiz-adv-x="575" d="M152 1237q0 66 27.5 134.5t72.5 119.5q68 74 119 113l53 -62q-82 -72 -82 -162q0 -20 13.5 -67t13.5 -79t-3.5 -50.5t-13.5 -40.5q-16 -41 -86.5 -41t-92 34.5t-21.5 100.5z" />
<glyph unicode="&#x2019;" horiz-adv-x="563" d="M152 1165q82 72 81 162q0 19 -13 67t-13 78.5t3 49t11 39.5q18 43 89 43t92.5 -35t21.5 -111t-53.5 -168t-92 -127t-73.5 -61z" />
<glyph unicode="&#x201a;" horiz-adv-x="462" d="M68 -193q29 27 43 43q41 47 41 119q0 21 -14.5 68t-14.5 81t5 55.5t29.5 42t73 20.5t74 -20.5t30.5 -42t5 -76t-27.5 -121t-72.5 -115.5q-68 -76 -119 -115z" />
<glyph unicode="&#x201c;" horiz-adv-x="909" d="M152 1237q0 66 27.5 134.5t72.5 119.5q68 74 119 113l55 -62q-84 -74 -84 -162q0 -20 13.5 -67t13.5 -84t-5.5 -60.5t-31 -45t-82.5 -21.5t-77.5 34.5t-20.5 100.5zM485 1237q0 66 28 134.5t73 119.5q68 74 119 113l53 -62q-82 -72 -82 -162q0 -20 13 -67t13 -79 t-3 -50.5t-11 -40.5q-18 -41 -89 -41t-92.5 34.5t-21.5 100.5z" />
<glyph unicode="&#x201d;" horiz-adv-x="909" d="M152 1165q82 72 81 162q0 19 -13 67t-13 78.5t3 49t11 39.5q18 43 89 43t92.5 -35t21.5 -111t-53.5 -168t-92 -127t-73.5 -61zM483 1165q43 37 63.5 72t20.5 72t-13 85t-13 83.5t5 59.5t30.5 45.5t83 21.5t78 -35t20.5 -111t-53.5 -168t-92.5 -127t-73 -61z" />
<glyph unicode="&#x201e;" horiz-adv-x="796" d="M68 -193q82 72 82 162q0 19 -13.5 67t-13.5 78.5t3 49t13 41.5q16 41 87 41t92.5 -35t21.5 -110.5t-53.5 -168t-92 -127t-73.5 -61.5zM399 -193q43 37 63.5 72t20.5 72t-13 85t-13 84t5 59.5t30.5 45t83 21.5t78 -35t20.5 -110.5t-53.5 -168t-92.5 -127t-73 -61.5z" />
<glyph unicode="&#x2022;" horiz-adv-x="544" d="M104 674.5q0 56.5 7.5 92.5t46.5 67.5t103.5 31.5t100 -16t52.5 -47q23 -49 22.5 -109.5t-4.5 -87t-19.5 -57.5t-51 -46.5t-100 -15.5t-103.5 31t-46.5 65.5t-7.5 91z" />
<glyph unicode="&#x2026;" horiz-adv-x="1417" d="M123 103.5q0 31.5 3 50t13 39.5q16 43 90 43t94.5 -34t20.5 -82t-5 -71.5t-31.5 -44t-75 -20.5t-74 20.5t-30.5 44t-5 55zM598 103.5q0 31.5 3 50t13 39.5q16 43 90 43t94.5 -34t20.5 -82t-5 -71.5t-31.5 -44t-75 -20.5t-74 20.5t-30.5 44t-5 55zM1073 103.5q0 31.5 3 50 t14 39.5q16 43 89.5 43t94 -34t20.5 -82t-5 -71.5t-31.5 -44t-74.5 -20.5t-74 20.5t-31 44t-5 55z" />
<glyph unicode="&#x202f;" horiz-adv-x="404" />
<glyph unicode="&#x2039;" horiz-adv-x="624" d="M57 608v74l351 385l106 -104l-250 -318l250 -317l-106 -105z" />
<glyph unicode="&#x203a;" horiz-adv-x="624" d="M111 328l249 317l-249 318l106 104l350 -385v-74l-350 -385z" />
<glyph unicode="&#x205f;" horiz-adv-x="505" />
<glyph unicode="&#x20ac;" horiz-adv-x="1290" d="M96 537v125h140q-2 29 -2.5 86t2.5 86h-140v124h146q25 266 143.5 416t374.5 150q215 0 332.5 -95.5t121.5 -273.5l-155 -8q0 111 -85 171t-214 60q-168 0 -246 -107.5t-96 -312.5h477v-124h-485v-172h485v-125h-477q18 -207 96 -313.5t246 -106.5q131 0 216 61.5 t85 173.5l153 -8q-4 -180 -120.5 -276.5t-333.5 -96.5q-256 0 -375 148.5t-143 417.5h-146z" />
<glyph unicode="&#x2122;" horiz-adv-x="1982" d="M143 1374v121h598v-121h-229v-784h-139v784h-230zM905 590v905h201l217 -641l236 641h198v-905h-141v702l-230 -608h-131l-211 604v-698h-139z" />
<glyph unicode="&#x25fc;" horiz-adv-x="1167" d="M0 0v1167h1167v-1167h-1167z" />
</font>
</defs>
</svg>
